<?xml version="1.0" encoding="UTF-8" standalone="no"?>
<!-- Created with Inkscape (http://www.inkscape.org/) -->

<svg
   width="297mm"
   height="210mm"
   viewBox="0 0 297 210"
   version="1.1"
   id="svg1"
   inkscape:version="1.4.2 (ebf0e94, 2025-05-08)"
   sodipodi:docname="handshake_threads.svg"
   xml:space="preserve"
   inkscape:export-filename="handshake_threads.png"
   inkscape:export-xdpi="96"
   inkscape:export-ydpi="96"
   xmlns:inkscape="http://www.inkscape.org/namespaces/inkscape"
   xmlns:sodipodi="http://sodipodi.sourceforge.net/DTD/sodipodi-0.dtd"
   xmlns="http://www.w3.org/2000/svg"
   xmlns:svg="http://www.w3.org/2000/svg"><sodipodi:namedview
     id="namedview1"
     pagecolor="#ffffff"
     bordercolor="#000000"
     borderopacity="0.25"
     inkscape:showpageshadow="2"
     inkscape:pageopacity="0.0"
     inkscape:pagecheckerboard="0"
     inkscape:deskcolor="#d1d1d1"
     inkscape:document-units="mm"
     inkscape:zoom="0.91722222"
     inkscape:cx="606.17808"
     inkscape:cy="429.55784"
     inkscape:window-width="2556"
     inkscape:window-height="1393"
     inkscape:window-x="0"
     inkscape:window-y="0"
     inkscape:window-maximized="1"
     inkscape:current-layer="layer4"
     showgrid="true"><inkscape:grid
       id="grid1"
       units="mm"
       originx="0"
       originy="0"
       spacingx="0.99999998"
       spacingy="1"
       empcolor="#0099e5"
       empopacity="0.30196078"
       color="#0099e5"
       opacity="0.14901961"
       empspacing="5"
       enabled="true"
       visible="true" /></sodipodi:namedview><defs
     id="defs1"><rect
       x="415.38461"
       y="68.685646"
       width="188.61296"
       height="52.331921"
       id="rect6" /><rect
       x="45.790428"
       y="887.46216"
       width="207.14719"
       height="137.37129"
       id="rect2" /><rect
       x="45.790428"
       y="887.46216"
       width="207.14719"
       height="137.37129"
       id="rect2-6" /><marker
       style="overflow:visible"
       id="ConcaveTriangle"
       refX="0"
       refY="0"
       orient="auto-start-reverse"
       inkscape:stockid="Concave triangle arrow"
       markerWidth="1"
       markerHeight="1"
       viewBox="0 0 1 1"
       inkscape:isstock="true"
       inkscape:collect="always"
       preserveAspectRatio="xMidYMid"
       markerUnits="userSpaceOnUse"><path
         transform="scale(0.7)"
         d="M -2,-4 9,0 -2,4 c 2,-2.33 2,-5.66 0,-8 z"
         style="fill:context-stroke;fill-rule:evenodd;stroke:none"
         id="path7" /></marker><rect
       x="45.790428"
       y="887.46216"
       width="226.42024"
       height="201.3578"
       id="rect2-6-6" /><rect
       x="45.790428"
       y="887.46216"
       width="227.19118"
       height="239.13298"
       id="rect2-6-6-8" /><rect
       x="45.790428"
       y="887.46216"
       width="211.77272"
       height="64.133682"
       id="rect2-6-6-6" /><rect
       x="45.790428"
       y="887.46216"
       width="231.452"
       height="94.979967"
       id="rect2-6-6-8-3" /><rect
       x="45.790428"
       y="887.46216"
       width="227.19118"
       height="239.13298"
       id="rect2-6-6-8-5" /><rect
       x="45.790428"
       y="887.46216"
       width="144.17732"
       height="64.133682"
       id="rect2-6-6-6-6" /><rect
       x="45.790428"
       y="887.46216"
       width="128.36871"
       height="57.592194"
       id="rect2-6-6-6-6-2" /><rect
       x="45.790428"
       y="887.46216"
       width="234.05198"
       height="327.8266"
       id="rect2-6-6-64" /><rect
       x="45.790428"
       y="887.46216"
       width="207.14719"
       height="137.37129"
       id="rect2-6-7" /><rect
       x="45.790428"
       y="887.46216"
       width="368.9516"
       height="71.677116"
       id="rect2-6-6-64-3" /><rect
       x="45.790428"
       y="887.46216"
       width="624.2713"
       height="101.17488"
       id="rect2-6-6-64-3-0" /><rect
       x="45.790428"
       y="887.46216"
       width="775.23273"
       height="89.341515"
       id="rect2-6-6-64-3-5" /><rect
       x="45.790428"
       y="887.46216"
       width="282.42117"
       height="71.173347"
       id="rect2-6-6-64-3-5-0" /><rect
       x="45.790428"
       y="887.46216"
       width="227.19118"
       height="239.13298"
       id="rect2-6-6-8-9" /><rect
       x="45.790428"
       y="887.46216"
       width="215.09829"
       height="59.001771"
       id="rect2-6-6-8-3-2" /><rect
       x="45.790428"
       y="887.46216"
       width="186.75183"
       height="72.084747"
       id="rect2-6-6-8-3-2-8" /><marker
       style="overflow:visible"
       id="ConcaveTriangle-0"
       refX="0"
       refY="0"
       orient="auto-start-reverse"
       inkscape:stockid="Concave triangle arrow"
       markerWidth="1"
       markerHeight="1"
       viewBox="0 0 1 1"
       inkscape:isstock="true"
       inkscape:collect="always"
       preserveAspectRatio="xMidYMid"
       markerUnits="userSpaceOnUse"><path
         transform="scale(0.7)"
         d="M -2,-4 9,0 -2,4 c 2,-2.33 2,-5.66 0,-8 z"
         style="fill:context-stroke;fill-rule:evenodd;stroke:none"
         id="path7-2" /></marker><marker
       style="overflow:visible"
       id="ConcaveTriangle-7"
       refX="0"
       refY="0"
       orient="auto-start-reverse"
       inkscape:stockid="Concave triangle arrow"
       markerWidth="1"
       markerHeight="1"
       viewBox="0 0 1 1"
       inkscape:isstock="true"
       inkscape:collect="always"
       preserveAspectRatio="xMidYMid"
       markerUnits="userSpaceOnUse"><path
         transform="scale(0.7)"
         d="M -2,-4 9,0 -2,4 c 2,-2.33 2,-5.66 0,-8 z"
         style="fill:context-stroke;fill-rule:evenodd;stroke:none"
         id="path7-4" /></marker><marker
       style="overflow:visible"
       id="ConcaveTriangle-5"
       refX="0"
       refY="0"
       orient="auto-start-reverse"
       inkscape:stockid="Concave triangle arrow"
       markerWidth="1"
       markerHeight="1"
       viewBox="0 0 1 1"
       inkscape:isstock="true"
       inkscape:collect="always"
       preserveAspectRatio="xMidYMid"
       markerUnits="userSpaceOnUse"><path
         transform="scale(0.7)"
         d="M -2,-4 9,0 -2,4 c 2,-2.33 2,-5.66 0,-8 z"
         style="fill:context-stroke;fill-rule:evenodd;stroke:none"
         id="path7-0" /></marker><marker
       style="overflow:visible"
       id="ConcaveTriangle-2-6"
       refX="0"
       refY="0"
       orient="auto-start-reverse"
       inkscape:stockid="Concave triangle arrow"
       markerWidth="1"
       markerHeight="1"
       viewBox="0 0 1 1"
       inkscape:isstock="true"
       inkscape:collect="always"
       preserveAspectRatio="xMidYMid"
       markerUnits="userSpaceOnUse"><path
         transform="scale(0.7)"
         d="M -2,-4 9,0 -2,4 c 2,-2.33 2,-5.66 0,-8 z"
         style="fill:context-stroke;fill-rule:evenodd;stroke:none"
         id="path7-8-3" /></marker><marker
       style="overflow:visible"
       id="ConcaveTriangle-2"
       refX="0"
       refY="0"
       orient="auto-start-reverse"
       inkscape:stockid="Concave triangle arrow"
       markerWidth="1"
       markerHeight="1"
       viewBox="0 0 1 1"
       inkscape:isstock="true"
       inkscape:collect="always"
       preserveAspectRatio="xMidYMid"
       markerUnits="userSpaceOnUse"><path
         transform="scale(0.7)"
         d="M -2,-4 9,0 -2,4 c 2,-2.33 2,-5.66 0,-8 z"
         style="fill:context-stroke;fill-rule:evenodd;stroke:none"
         id="path7-8" /></marker><marker
       style="overflow:visible"
       id="ConcaveTriangle-6"
       refX="0"
       refY="0"
       orient="auto-start-reverse"
       inkscape:stockid="Concave triangle arrow"
       markerWidth="1"
       markerHeight="1"
       viewBox="0 0 1 1"
       inkscape:isstock="true"
       inkscape:collect="always"
       preserveAspectRatio="xMidYMid"
       markerUnits="userSpaceOnUse"><path
         transform="scale(0.7)"
         d="M -2,-4 9,0 -2,4 c 2,-2.33 2,-5.66 0,-8 z"
         style="fill:context-stroke;fill-rule:evenodd;stroke:none"
         id="path7-5" /></marker></defs><g
     inkscape:groupmode="layer"
     id="layer5"
     inkscape:label="file_thread"
     style="display:inline" /><g
     inkscape:groupmode="layer"
     id="layer8"
     inkscape:label="queue_data_transfer"
     style="display:inline" /><g
     inkscape:groupmode="layer"
     id="layer10"
     inkscape:label="main"
     style="display:inline"><rect
       style="fill:none;stroke:#008000;stroke-width:1.50395;stroke-linecap:round;stroke-linejoin:round"
       id="rect1-2-4"
       width="66.546173"
       height="88.469254"
       x="24.792351"
       y="46.889355" /></g><g
     inkscape:groupmode="layer"
     id="layer1"
     inkscape:label="PC"
     style="display:inline"><rect
       style="fill:none;stroke:#808080;stroke-width:5.92794;stroke-linecap:round;stroke-linejoin:round"
       id="rect3"
       width="274.41995"
       height="209.92136"
       x="13.941194"
       y="8.8076792" /><path
       style="baseline-shift:baseline;display:inline;overflow:visible;vector-effect:none;fill:#808080;fill-opacity:1;stroke:#808080;stroke-width:1.64894;stroke-linecap:round;stroke-linejoin:round;enable-background:accumulate;stop-color:#000000"
       d="m 331.091,238.40915 c 4.88667,-0.004 8.17221,0.19463 8.14415,-0.48415 l -49.6381,-20.74664 c 0,0 1.88974,2.58092 -1.1757,0.36734 l -277.584753,0.22502 c 0,0 -0.577817,-0.60152 -0.549809,0.0773 l -53.405384,19.89825 c 0.03097,0.67878 4.013477,1.22581 8.900138,1.22192 z m -8.29911,-2.45102 -348.265152,0.54466 41.39942,-17.07568 269.466892,-0.0412 z"
       id="rect4"
       sodipodi:nodetypes="cccccccccccccc" /></g><g
     inkscape:groupmode="layer"
     id="layer7"
     inkscape:label="serial_port_thread"
     style="display:inline"><rect
       style="fill:none;stroke:#008000;stroke-width:1.24623;stroke-linecap:round;stroke-linejoin:round"
       id="rect1"
       width="62.520454"
       height="64.65815"
       x="122.07933"
       y="141.48227" /><rect
       style="display:inline;fill:none;stroke:#008000;stroke-width:1.24623;stroke-linecap:round;stroke-linejoin:round"
       id="rect1-0"
       width="62.520454"
       height="64.65815"
       x="203.05919"
       y="50.562634" /><rect
       style="fill:none;stroke:#008000;stroke-width:1.24623;stroke-linecap:round;stroke-linejoin:round"
       id="rect1-2"
       width="62.520454"
       height="64.65815"
       x="122.33714"
       y="61.031479" /><text
       xml:space="preserve"
       transform="matrix(0.26458333,0,0,0.26458333,111.08877,-173.57151)"
       id="text2-2-2"
       style="font-style:normal;font-variant:normal;font-weight:normal;font-stretch:normal;font-size:21.3333px;font-family:'Latin Modern Sans';-inkscape-font-specification:'Latin Modern Sans';text-align:start;writing-mode:lr-tb;direction:ltr;white-space:pre;shape-inside:url(#rect2-6-6-8);display:inline;fill:#000000;stroke:#008000;stroke-width:0.755906;stroke-linecap:round;stroke-linejoin:round;stroke-dasharray:none"><tspan
         x="45.791016"
         y="907.32419"
         id="tspan10"><tspan
           style="font-weight:bold"
           id="tspan1">Parse_accelerometer_</tspan></tspan><tspan
         x="45.791016"
         y="933.99082"
         id="tspan14"><tspan
   style="font-weight:bold"
   id="tspan11">dat</tspan><tspan
   style="font-weight:bold"
   id="tspan13">a object</tspan>
</tspan><tspan
         x="45.791016"
         y="960.65744"
         id="tspan15">
</tspan><tspan
         x="45.791016"
         y="987.32407"
         id="tspan16">Parses complete scans of </tspan><tspan
         x="45.791016"
         y="1013.9907"
         id="tspan17">sensor data
</tspan><tspan
         x="45.791016"
         y="1040.6573"
         id="tspan82">
</tspan><tspan
         x="45.791016"
         y="1067.3239"
         id="tspan83">Publishes the parsed </tspan><tspan
         x="45.791016"
         y="1093.9906"
         id="tspan84">data using PyDispatcher</tspan></text><text
       xml:space="preserve"
       transform="matrix(0.26458333,0,0,0.26458333,116.67001,-208.85547)"
       id="text2-2-2-0"
       style="font-style:normal;font-variant:normal;font-weight:normal;font-stretch:normal;font-size:21.3333px;font-family:'Latin Modern Sans';-inkscape-font-specification:'Latin Modern Sans';text-align:start;writing-mode:lr-tb;direction:ltr;white-space:pre;shape-inside:url(#rect2-6-6-8-3);shape-padding:0;display:inline;fill:#000000;stroke:#000000;stroke-width:0.755906;stroke-linecap:round;stroke-linejoin:round;stroke-dasharray:none"><tspan
         x="45.791016"
         y="907.32419"
         id="tspan85">Parsed sensor data
</tspan><tspan
         x="45.791016"
         y="933.99082"
         id="tspan86">made available using </tspan><tspan
         x="45.791016"
         y="960.65744"
         id="tspan87">PyDispatcher pub/sub</tspan></text><text
       xml:space="preserve"
       transform="matrix(0.26458333,0,0,0.26458333,23.828021,-208.29401)"
       id="text2-2-2-0-5"
       style="font-style:normal;font-variant:normal;font-weight:normal;font-stretch:normal;font-size:21.3333px;font-family:'Latin Modern Sans';-inkscape-font-specification:'Latin Modern Sans';text-align:start;writing-mode:lr-tb;direction:ltr;white-space:pre;shape-inside:url(#rect2-6-6-8-3-2);shape-padding:0;display:inline;fill:#000000;stroke:#000000;stroke-width:0.755906;stroke-linecap:round;stroke-linejoin:round;stroke-dasharray:none"><tspan
         x="45.791016"
         y="907.32419"
         id="tspan88">File recording status </tspan><tspan
         x="45.791016"
         y="933.99082"
         id="tspan89">put on a queue</tspan></text><text
       xml:space="preserve"
       transform="matrix(0.26458333,0,0,0.26458333,198.89712,-206.85065)"
       id="text2-2-2-0-5-3"
       style="font-style:normal;font-variant:normal;font-weight:normal;font-stretch:normal;font-size:21.3333px;font-family:'Latin Modern Sans';-inkscape-font-specification:'Latin Modern Sans';text-align:start;writing-mode:lr-tb;direction:ltr;white-space:pre;shape-inside:url(#rect2-6-6-8-3-2-8);shape-padding:0;display:inline;fill:#000000;stroke:#000000;stroke-width:0.755906;stroke-linecap:round;stroke-linejoin:round;stroke-dasharray:none"><tspan
         x="45.791016"
         y="907.32419"
         id="tspan90">Get file recording </tspan><tspan
         x="45.791016"
         y="933.99082"
         id="tspan91">status from a queue</tspan></text><text
       xml:space="preserve"
       transform="matrix(0.26458333,0,0,0.26458333,20.991414,-69.588558)"
       id="text2-2-2-3"
       style="font-style:normal;font-variant:normal;font-weight:normal;font-stretch:normal;font-size:21.3333px;font-family:'Latin Modern Sans';-inkscape-font-specification:'Latin Modern Sans';text-align:start;writing-mode:lr-tb;direction:ltr;white-space:pre;shape-inside:url(#rect2-6-6-8-5);display:inline;fill:#000000;stroke:#008000;stroke-width:0.755906;stroke-linecap:round;stroke-linejoin:round;stroke-dasharray:none"><tspan
         x="45.791016"
         y="907.32419"
         id="tspan93"><tspan
   style="font-weight:bold"
   id="tspan92">DataFrame object</tspan>
</tspan><tspan
         x="45.791016"
         y="933.99082"
         id="tspan94">
</tspan><tspan
         x="45.791016"
         y="960.65744"
         id="tspan95">Updates a Pandas </tspan><tspan
         x="45.791016"
         y="987.32407"
         id="tspan96">dataframe with sensor </tspan><tspan
         x="45.791016"
         y="1013.9907"
         id="tspan97">and processed data</tspan></text><text
       xml:space="preserve"
       style="font-style:normal;font-variant:normal;font-weight:normal;font-stretch:normal;font-size:5.64444px;font-family:'Latin Modern Sans';-inkscape-font-specification:'Latin Modern Sans';text-align:start;writing-mode:lr-tb;direction:ltr;text-anchor:start;white-space:pre;inline-size:36.7876;display:inline;fill:#000000;stroke:#000000;stroke-width:1.165;stroke-linecap:round;stroke-linejoin:round;stroke-dasharray:1.165, 3.49499"
       x="111.34615"
       y="21.634615"
       id="text1" /></g><g
     inkscape:groupmode="layer"
     id="layer6"
     inkscape:label="data_flow"
     style="display:inline"><path
       style="fill:#000000;stroke:#000000;stroke-width:1.55069;stroke-linecap:round;stroke-linejoin:round;stroke-dasharray:none;marker-end:url(#ConcaveTriangle)"
       d="m 130.30145,140.64721 v -8.56408"
       id="path10" /><path
       style="display:inline;fill:none;stroke:#008000;stroke-width:1.5;stroke-linecap:round;stroke-linejoin:round;stroke-dasharray:none;marker-start:url(#ConcaveTriangle-0)"
       d="m 150.05897,211.30977 v 24.54108 -0.16694"
       id="path13-5" /><path
       style="display:inline;fill:none;stroke:#000000;stroke-width:1.5;stroke-linecap:round;stroke-linejoin:round;stroke-dasharray:none;marker-start:url(#ConcaveTriangle-7)"
       d="m 61.6036,156.11825 -0.110886,-19.7616 7.61e-4,0.13443"
       id="path13-0" /><path
       style="display:inline;fill:#000000;stroke:#000000;stroke-width:1.5;stroke-linecap:round;stroke-linejoin:round;stroke-dasharray:none;marker-start:url(#ConcaveTriangle-5)"
       d="m 80.253195,141.42551 v 19.93518 -0.13562"
       id="path13" /><path
       style="display:inline;fill:#000000;fill-opacity:0;stroke:#000000;stroke-width:1.5;stroke-linecap:round;stroke-linejoin:round;stroke-dasharray:none;marker-start:url(#ConcaveTriangle-2-6)"
       d="M 208.15456,44.97607 208.25654,0.40794622"
       id="path8" /><path
       style="display:inline;fill:#000000;fill-opacity:0;stroke:#000000;stroke-width:1.5;stroke-linecap:round;stroke-linejoin:round;stroke-dasharray:none"
       d="M 85.464731,0.30595973 208.25654,0.40794623"
       id="path9" /><path
       style="display:inline;fill:#000000;fill-opacity:0;stroke:#000000;stroke-width:1.5;stroke-linecap:round;stroke-linejoin:round;stroke-dasharray:none"
       d="M 85.362745,46.607856 V 0.40794622"
       id="path4" /><path
       style="fill:none;stroke:#000000;stroke-width:1.48149;stroke-linecap:round;stroke-linejoin:round;stroke-dasharray:none;marker-end:url(#ConcaveTriangle-6)"
       d="m 169.33359,60.551891 -0.13967,-6.148873 28.21507,-0.120567"
       id="path12" /><path
       style="fill:none;stroke:#000000;stroke-width:1.5;stroke-linecap:round;stroke-linejoin:round;stroke-dasharray:none;marker-end:url(#ConcaveTriangle-2)"
       d="M 136.04157,60.858954 136.23323,50.311447 97.517583,50.104633"
       id="path12-3" /></g><g
     inkscape:groupmode="layer"
     id="layer12"
     inkscape:label="thread outlines"
     style="display:inline"><rect
       style="fill:none;stroke:#0000ff;stroke-width:1.13421;stroke-linecap:round;stroke-linejoin:round;stroke-dasharray:1.13421, 3.40264;stroke-dashoffset:0"
       id="rect5"
       width="88.300011"
       height="196.18465"
       x="20.465376"
       y="16.426914" /></g><g
     inkscape:groupmode="layer"
     id="layer9"
     inkscape:label="wire"
     style="fill:#008000;stroke:#008000"
     transform="matrix(0.98557313,0,0,1.0755867,2.2193524,-19.494795)"><path
       style="fill:#000000;stroke:#000000;stroke-width:1.83406;stroke-linecap:round;stroke-linejoin:round;stroke-dasharray:none"
       id="path6"
       d="m 148.97852,250.06292 c 0.0833,0.0447 0.17111,0.0849 0.2577,0.1263 0.0777,0.0375 0.15118,0.0786 0.22105,0.12304 0.0599,0.0421 0.10638,0.0923 0.15015,0.14307 0.0641,0.0758 0.11929,0.15492 0.17082,0.2353 0.057,0.0896 0.10852,0.18083 0.14883,0.27492 0.0365,0.0954 0.0669,0.19207 0.0862,0.29001 0.0223,0.0986 0.0198,0.19641 0.003,0.29495 -0.0194,0.11668 -0.068,0.22708 -0.13346,0.33438 -0.0841,0.13874 -0.18274,0.27256 -0.29096,0.40251 -0.12555,0.14525 -0.26621,0.28358 -0.40754,0.42122 -0.15881,0.15446 -0.3275,0.30363 -0.49452,0.45363 -0.19839,0.1755 -0.38796,0.35568 -0.56907,0.54029 -0.19836,0.1997 -0.37639,0.4086 -0.54543,0.62123 -0.18027,0.21964 -0.33425,0.44876 -0.47793,0.68129 -0.15032,0.23972 -0.25746,0.49083 -0.35351,0.74363 -0.0909,0.24513 -0.15971,0.49388 -0.20599,0.74513 -0.0435,0.24644 -0.0401,0.49458 -0.0198,0.74195 0.0202,0.2269 0.072,0.45146 0.13209,0.67451 0.055,0.20968 0.13388,0.41519 0.22471,0.61832 0.0908,0.19204 0.20086,0.3792 0.31545,0.56464 0.10941,0.17604 0.23647,0.34609 0.3675,0.51443 0.12467,0.1574 0.26021,0.3103 0.39925,0.46148 0.12945,0.14171 0.26784,0.27909 0.40973,0.41464 0.13246,0.1298 0.27273,0.25542 0.4151,0.37979 0.11249,0.10172 0.2318,0.19942 0.35099,0.29716 0,0 0.80719,-0.49463 0.80719,-0.49463 v 0 c -0.11199,-0.0918 -0.22423,-0.1835 -0.32973,-0.27916 -0.1327,-0.11587 -0.26347,-0.23287 -0.38675,-0.3539 -0.12914,-0.1233 -0.25519,-0.2482 -0.37292,-0.37718 -0.12489,-0.13558 -0.24658,-0.27272 -0.35882,-0.41379 -0.1155,-0.14813 -0.22776,-0.29769 -0.32438,-0.45258 -0.0998,-0.16101 -0.19552,-0.32349 -0.27573,-0.48997 -0.0786,-0.17464 -0.14653,-0.35132 -0.1937,-0.53173 -0.0518,-0.19078 -0.0968,-0.38282 -0.11486,-0.5769 -0.0173,-0.20022 -0.0213,-0.40105 0.013,-0.60062 0.0387,-0.21773 0.10062,-0.4329 0.17816,-0.64535 0.0817,-0.21637 0.17196,-0.43156 0.30058,-0.63668 0.12916,-0.20944 0.26737,-0.41584 0.43017,-0.61343 0.15231,-0.19197 0.31277,-0.38054 0.49189,-0.56069 0.16858,-0.17212 0.34558,-0.33979 0.53043,-0.50333 0.17564,-0.15776 0.3529,-0.31472 0.51979,-0.47725 0.16165,-0.1576 0.3222,-0.31616 0.46462,-0.48298 0.13118,-0.15883 0.25207,-0.32186 0.3539,-0.49133 0.10243,-0.17422 0.18021,-0.35381 0.21057,-0.54212 0.0256,-0.16389 0.0289,-0.32775 -0.007,-0.49124 -0.029,-0.1363 -0.0684,-0.27142 -0.12261,-0.40388 -0.055,-0.12463 -0.12072,-0.24653 -0.19741,-0.36531 -0.071,-0.11003 -0.14736,-0.21835 -0.23633,-0.32174 -0.0991,-0.1114 -0.20769,-0.21909 -0.34636,-0.30788 -0.10595,-0.0664 -0.21642,-0.12877 -0.33366,-0.18498 -0.0703,-0.0336 -0.14179,-0.066 -0.2098,-0.10202 z" /></g><g
     inkscape:groupmode="layer"
     id="layer2"
     inkscape:label="USB port2"
     style="display:inline"><g
       id="g5"
       transform="matrix(0.64841498,0,0,0.64841498,-41.882724,112.5045)"><g
         style="display:inline;fill:none"
         id="g3"
         transform="matrix(1.247329,0,0,1.247329,280.67211,184.02122)"
         inkscape:label="usb_port"><path
           fill-rule="evenodd"
           clip-rule="evenodd"
           d="M 12,22 C 17.5228,22 22,17.5228 22,12 22,6.47715 17.5228,2 12,2 6.47715,2 2,6.47715 2,12 2,17.5228 6.47715,22 12,22 Z m 1.5303,-15.53033 -1,-1 c -0.2929,-0.29289 -0.7677,-0.29289 -1.0606,0 l -1,1 c -0.2929,0.29289 -0.2929,0.76777 0,1.06066 0.211,0.21102 0.5165,0.27001 0.7803,0.17696 v 5.03421 c -0.0713,-0.03 -0.1445,-0.0568 -0.2194,-0.0802 L 9.62716,12.2227 C 9.10531,12.0596 8.75,11.5763 8.75,11.0296 v -0.448 C 9.34124,10.3007 9.75,9.6981 9.75,9 9.75,8.0335 8.9665,7.25 8,7.25 7.0335,7.25 6.25,8.0335 6.25,9 c 0,0.6981 0.40876,1.3007 1,1.5816 v 0.448 c 0,1.2028 0.78169,2.2661 1.92974,2.6248 L 10.5832,14.093 C 10.9799,14.217 11.25,14.5844 11.25,15 v 0.4184 c -0.5912,0.2809 -1,0.8835 -1,1.5816 0,0.9665 0.7835,1.75 1.75,1.75 0.9665,0 1.75,-0.7835 1.75,-1.75 0,-0.6395 -0.3431,-1.1989 -0.8552,-1.5042 0.1176,-0.1877 0.3,-0.3334 0.522,-0.4028 l 1.4035,-0.4386 c 1.148,-0.3587 1.9297,-1.422 1.9297,-2.6248 v -0.3212 c 0.2002,-0.0389 0.4331,-0.1237 0.6339,-0.3245 0.2358,-0.2358 0.3116,-0.516 0.3411,-0.7353 0.0252,-0.1872 0.0251,-0.409 0.025,-0.6141 V 9.96555 c 10e-5,-0.2051 2e-4,-0.42691 -0.025,-0.61412 C 17.6955,9.1321 17.6197,8.85192 17.3839,8.61612 17.1481,8.38032 16.8679,8.30448 16.6486,8.27499 16.4614,8.24982 16.2396,8.24991 16.0345,8.24999 h -0.0689 c -0.2052,-8e-5 -0.427,-1.7e-4 -0.6142,0.025 -0.2193,0.02949 -0.4995,0.10533 -0.7353,0.34113 -0.2358,0.2358 -0.3116,0.51598 -0.3411,0.73531 -0.0252,0.18721 -0.0251,0.40899 -0.025,0.6141 v 0.06887 c -10e-5,0.2052 -2e-4,0.427 0.025,0.6142 0.0295,0.2193 0.1053,0.4995 0.3411,0.7353 0.2008,0.2008 0.4337,0.2856 0.6339,0.3245 v 0.3212 c 0,0.5467 -0.3553,1.03 -0.8772,1.1931 l -1.4034,0.4386 c -0.0749,0.0234 -0.1481,0.0502 -0.2194,0.0802 V 7.70729 c 0.2638,0.09305 0.5693,0.03406 0.7803,-0.17696 0.2929,-0.29289 0.2929,-0.76777 0,-1.06066 z"
           fill="#1c274c"
           id="path1-9" /></g><path
         style="fill:#ffffff;stroke:#ffffff;stroke-width:2.91372;stroke-linecap:round;stroke-linejoin:round"
         d="m 1114.9434,783.39189 c -2.3078,-0.79803 -3.9218,-2.24512 -4.9872,-4.47158 -0.5532,-1.15606 -0.5995,-1.40894 -0.5995,-3.27642 0,-1.87093 0.045,-2.11822 0.6025,-3.27642 0.7375,-1.53377 1.7075,-2.67426 2.9703,-3.49253 l 0.9564,-0.61973 v -1.55756 c 0,-1.6965 -0.3362,-2.69769 -1.1959,-3.61078 -0.7253,-0.77033 -1.3779,-1.04588 -5.7092,-2.41075 -2.189,-0.68978 -4.4724,-1.51577 -5.0743,-1.83553 -2.2082,-1.17314 -4.3282,-3.3675 -5.4341,-5.6248 -0.8956,-1.82797 -1.2386,-3.26199 -1.3946,-5.83026 l -0.1297,-2.1347 -0.6489,-0.34944 c -0.9132,-0.49183 -2.4468,-2.16879 -3.0089,-3.29037 -2.4611,-4.91002 0.5257,-10.74107 5.9808,-11.67653 2.557,-0.43848 5.0641,0.39818 6.9901,2.3327 3.6231,3.63923 3.0116,9.59943 -1.2769,12.44598 l -1.0873,0.72171 0.082,1.75792 c 0.1253,2.68798 1.1676,4.54243 3.119,5.54926 0.615,0.31731 8.3377,2.85786 8.6873,2.85786 0.058,0 0.1049,-5.35977 0.1049,-11.91059 v -11.91059 l -0.6757,0.0789 c -1.0867,0.12686 -1.9811,-0.1317 -2.7299,-0.78916 -1.1661,-1.02386 -1.5329,-2.50784 -0.9527,-3.85431 0.147,-0.3411 1.6431,-1.97665 3.3246,-3.63456 2.7043,-2.66621 3.1495,-3.02947 3.8548,-3.14514 1.6283,-0.26703 2.2148,0.0742 5.2351,3.04577 1.5252,1.50056 2.9384,3.05007 3.1404,3.44335 0.8235,1.60339 0.2346,3.61651 -1.3254,4.53074 -0.6895,0.40411 -1.0068,0.47139 -1.8812,0.39889 l -1.0517,-0.0872 v 14.3261 c 0,7.87935 0.042,14.32609 0.092,14.32609 0.051,0 0.4194,-0.12428 0.8191,-0.27617 0.3996,-0.15189 2.382,-0.80069 4.4053,-1.44176 3.1869,-1.00978 3.7933,-1.26644 4.5357,-1.91992 1.3683,-1.20446 1.9666,-2.49929 2.0592,-4.45683 l 0.077,-1.63821 -1.0046,-0.35266 c -1.2902,-0.45294 -2.5315,-1.60279 -3.109,-2.88 -0.43,-0.95118 -0.4555,-1.22258 -0.4555,-4.86202 0,-3.64027 0.025,-3.90437 0.4452,-4.74952 0.5673,-1.14019 1.5861,-2.15904 2.7156,-2.7156 0.8045,-0.3964 1.2116,-0.4427 4.3986,-0.50025 2.7701,-0.05 3.7323,6.6e-4 4.5553,0.23992 1.3642,0.39658 2.804,1.67811 3.4222,3.04606 0.434,0.96059 0.4598,1.22774 0.4598,4.77576 0,3.72951 0,3.76667 -0.5418,4.86148 -0.6383,1.29991 -1.7859,2.34903 -3.0672,2.80412 l -0.9202,0.32682 v 1.19056 c 0,3.73669 -1.5282,7.2504 -4.2489,9.76933 -1.8056,1.67178 -3.274,2.3848 -7.7968,3.78608 -4.139,1.2824 -5.1404,1.72753 -5.7546,2.55793 l -0.3923,0.53046 1.0742,0.95739 c 2.1241,1.89318 2.949,3.83328 2.8177,6.62634 -0.066,1.40517 -0.1884,1.9827 -0.6029,2.84672 -0.9875,2.05883 -2.8073,3.70567 -4.8847,4.4204 -1.3855,0.47668 -3.6447,0.48905 -4.9801,0.0273 z"
         id="path5"
         transform="scale(0.26458333)" /></g></g><g
     inkscape:groupmode="layer"
     id="layer3"
     inkscape:label="watch"><g
       style="display:inline;fill:#4d4d4d;stroke:#4d4d4d"
       id="g2"
       transform="matrix(3.7463781e-5,-0.07118089,0.07118089,3.7463781e-5,131.08803,290.72654)"><rect
         x="136"
         y="136"
         width="240"
         height="240"
         rx="8"
         ry="8"
         id="rect1-5"
         style="fill:#4d4d4d;stroke:#4d4d4d" /><path
         d="M 384,96 H 336 V 16 H 176 v 80 h -48 a 32,32 0 0 0 -32,32 v 256 a 32,32 0 0 0 32,32 h 48 v 80 h 160 v -80 h 48 a 32,32 0 0 0 32,-32 V 128 A 32,32 0 0 0 384,96 Z m 8,272 a 24,24 0 0 1 -24,24 H 144 A 24,24 0 0 1 120,368 V 144 a 24,24 0 0 1 24,-24 h 224 a 24,24 0 0 1 24,24 z"
         id="path1-3"
         style="fill:#4d4d4d;stroke:#4d4d4d" /></g></g><g
     inkscape:groupmode="layer"
     id="layer4"
     inkscape:label="text"><text
       xml:space="preserve"
       transform="matrix(0.26458333,0,0,0.26458333,75.696407,10.564571)"
       id="text2"
       style="font-style:normal;font-variant:normal;font-weight:normal;font-stretch:normal;font-size:21.3333px;font-family:'Latin Modern Sans';-inkscape-font-specification:'Latin Modern Sans';text-align:start;writing-mode:lr-tb;direction:ltr;white-space:pre;shape-inside:url(#rect2-6);display:inline;fill:#000000;stroke:#008000;stroke-width:0.755906;stroke-linecap:round;stroke-linejoin:round;stroke-dasharray:none"><tspan
         x="45.791016"
         y="907.32419"
         id="tspan99"><tspan
           style="fill:#1a1a1a;stroke:#1a1a1a"
           id="tspan98">T-Watch S3 sends </tspan></tspan><tspan
         x="45.791016"
         y="933.99082"
         id="tspan101"><tspan
           style="fill:#1a1a1a;stroke:#1a1a1a"
           id="tspan100">sensor data via USB </tspan></tspan><tspan
         x="45.791016"
         y="960.65744"
         id="tspan103"><tspan
           style="fill:#1a1a1a;stroke:#1a1a1a"
           id="tspan102">cable</tspan></tspan></text><text
       xml:space="preserve"
       transform="matrix(0.26458333,0,0,0.26458333,111.64687,-90.265107)"
       id="text2-2"
       style="font-style:normal;font-variant:normal;font-weight:normal;font-stretch:normal;font-size:21.3333px;font-family:'Latin Modern Sans';-inkscape-font-specification:'Latin Modern Sans';text-align:start;writing-mode:lr-tb;direction:ltr;white-space:pre;shape-inside:url(#rect2-6-6);display:inline;fill:#000000;stroke:#008000;stroke-width:0.755906;stroke-linecap:round;stroke-linejoin:round;stroke-dasharray:none"><tspan
         x="45.791016"
         y="907.32419"
         id="tspan105"><tspan
   style="font-weight:bold"
   id="tspan104">Serial_Connect object</tspan>
</tspan><tspan
         x="45.791016"
         y="933.99082"
         id="tspan106">
</tspan><tspan
         x="45.791016"
         y="960.65744"
         id="tspan107">Collects  sensor data </tspan><tspan
         x="45.791016"
         y="987.32407"
         id="tspan108">from the serial port and </tspan><tspan
         x="45.791016"
         y="1013.9907"
         id="tspan109">assembles complete </tspan><tspan
         x="45.791016"
         y="1040.6573"
         id="tspan110">scans of data together</tspan></text><text
       xml:space="preserve"
       transform="matrix(0.26458333,0,0,0.26458333,122.88656,-108.42769)"
       id="text2-2-9"
       style="font-style:normal;font-variant:normal;font-weight:normal;font-stretch:normal;font-size:21.3333px;font-family:'Latin Modern Sans';-inkscape-font-specification:'Latin Modern Sans';text-align:start;writing-mode:lr-tb;direction:ltr;white-space:pre;shape-inside:url(#rect2-6-6-6);display:inline;fill:#000000;stroke:#000000;stroke-width:0.755906;stroke-linecap:round;stroke-linejoin:round;stroke-dasharray:none"><tspan
         x="45.791016"
         y="907.32419"
         id="tspan111">Complete scans of </tspan><tspan
         x="45.791016"
         y="933.99082"
         id="tspan112">sensor data</tspan></text><text
       xml:space="preserve"
       transform="matrix(0.26458333,0,0,0.26458333,70.396183,-90.838252)"
       id="text2-2-9-4"
       style="font-style:normal;font-variant:normal;font-weight:normal;font-stretch:normal;font-size:21.3333px;font-family:'Latin Modern Sans';-inkscape-font-specification:'Latin Modern Sans';text-align:start;writing-mode:lr-tb;direction:ltr;white-space:pre;shape-inside:url(#rect2-6-6-6-6);display:inline;fill:#000000;stroke:#000000;stroke-width:0.755906;stroke-linecap:round;stroke-linejoin:round;stroke-dasharray:none"><tspan
         x="45.791016"
         y="907.32419"
         id="tspan113">Updated </tspan><tspan
         x="45.791016"
         y="933.99082"
         id="tspan114">dataframe </tspan></text><text
       xml:space="preserve"
       transform="matrix(0.26458333,0,0,0.26458333,14.883121,-94.591347)"
       id="text2-2-9-4-8"
       style="font-style:normal;font-variant:normal;font-weight:normal;font-stretch:normal;font-size:21.3333px;font-family:'Latin Modern Sans';-inkscape-font-specification:'Latin Modern Sans';text-align:start;writing-mode:lr-tb;direction:ltr;white-space:pre;shape-inside:url(#rect2-6-6-6-6-2);shape-padding:0.545124;display:inline;fill:#000000;stroke:#000000;stroke-width:0.755906;stroke-linecap:round;stroke-linejoin:round;stroke-dasharray:none"><tspan
         x="46.335938"
         y="907.86911"
         id="tspan115">Parsed sensor </tspan><tspan
         x="46.335938"
         y="934.53574"
         id="tspan116">data </tspan></text><text
       xml:space="preserve"
       transform="matrix(0.26458333,0,0,0.26458333,16.473418,-186.37455)"
       id="text2-2-0"
       style="font-style:normal;font-variant:normal;font-weight:normal;font-stretch:normal;font-size:21.3333px;font-family:'Latin Modern Sans';-inkscape-font-specification:'Latin Modern Sans';text-align:start;writing-mode:lr-tb;direction:ltr;white-space:pre;shape-inside:url(#rect2-6-6-64);display:inline;fill:#000000;stroke:#008000;stroke-width:0.755906;stroke-linecap:round;stroke-linejoin:round;stroke-dasharray:none"
       x="0"
       y="0"><tspan
         x="45.791016"
         y="907.32419"
         id="tspan118"><tspan
   style="font-weight:bold"
   id="tspan117">Handshake object</tspan>
</tspan><tspan
         x="45.791016"
         y="933.99082"
         id="tspan119">
</tspan><tspan
         x="45.791016"
         y="960.65744"
         id="tspan120">Receives parsed sensor
</tspan><tspan
         x="45.791016"
         y="987.32407"
         id="tspan121">data using PyDispatcher </tspan><tspan
         x="45.791016"
         y="1013.9907"
         id="tspan122">subscriber
</tspan><tspan
         x="45.791016"
         y="1040.6573"
         id="tspan123">
</tspan><tspan
         x="45.791016"
         y="1067.3239"
         id="tspan124">Updates a Pandas </tspan><tspan
         x="45.791016"
         y="1093.9906"
         id="tspan125">Dataframe with parsed </tspan><tspan
         x="45.791016"
         y="1120.6572"
         id="tspan126">sensor data
</tspan><tspan
         x="45.791016"
         y="1147.3238"
         id="tspan127">
</tspan><tspan
         x="45.791016"
         y="1173.9905"
         id="tspan128">Graphs data contained in </tspan><tspan
         x="45.791016"
         y="1200.6571"
         id="tspan129">the DataFrame</tspan></text><text
       xml:space="preserve"
       transform="matrix(0.26458333,0,0,0.26458333,84.024977,-13.21383)"
       id="text2-5"
       style="font-style:normal;font-variant:normal;font-weight:normal;font-stretch:normal;font-size:21.3333px;font-family:'Latin Modern Sans';-inkscape-font-specification:'Latin Modern Sans';text-align:start;writing-mode:lr-tb;direction:ltr;white-space:pre;shape-inside:url(#rect2-6-7);display:inline;fill:#000000;stroke:#000000;stroke-width:0.755906;stroke-linecap:round;stroke-linejoin:round;stroke-dasharray:none"><tspan
         x="45.791016"
         y="907.32419"
         id="tspan130">Sensor data received </tspan><tspan
         x="45.791016"
         y="933.99082"
         id="tspan131">using a serial port</tspan></text><text
       xml:space="preserve"
       transform="scale(0.26458333)"
       id="text5"
       style="font-style:normal;font-variant:normal;font-weight:normal;font-stretch:normal;font-size:21.3333px;font-family:'Latin Modern Sans';-inkscape-font-specification:'Latin Modern Sans';text-align:start;writing-mode:lr-tb;direction:ltr;white-space:pre;shape-inside:url(#rect6);display:inline;fill:#000000;stroke:#000000;stroke-width:4.40315;stroke-linecap:round;stroke-linejoin:round;stroke-dasharray:4.40315, 13.2094;stroke-dashoffset:0" /><text
       xml:space="preserve"
       style="font-style:normal;font-variant:normal;font-weight:normal;font-stretch:normal;font-size:5.64444px;font-family:'Latin Modern Sans';-inkscape-font-specification:'Latin Modern Sans';text-align:start;writing-mode:lr-tb;direction:ltr;text-anchor:start;fill:#000000;stroke:#000000;stroke-width:1.165;stroke-linecap:round;stroke-linejoin:round;stroke-dasharray:1.165, 3.49499;stroke-dashoffset:0"
       x="126.63461"
       y="29.711538"
       id="text9"><tspan
         sodipodi:role="line"
         id="tspan9"
         style="font-style:normal;font-variant:normal;font-weight:normal;font-stretch:normal;font-family:'Latin Modern Sans';-inkscape-font-specification:'Latin Modern Sans';stroke-width:1.165"
         x="126.63461"
         y="29.711538" /></text><text
       xml:space="preserve"
       transform="matrix(0.12701844,0,0,0.12701844,36.514271,-95.006884)"
       id="text2-2-0-6"
       style="font-style:normal;font-variant:normal;font-weight:normal;font-stretch:normal;font-size:21.3333px;font-family:'Latin Modern Sans';-inkscape-font-specification:'Latin Modern Sans';text-align:start;writing-mode:lr-tb;direction:ltr;white-space:pre;shape-inside:url(#rect2-6-6-64-3);display:inline;fill:#000000;stroke:#008000;stroke-width:0.755906;stroke-linecap:round;stroke-linejoin:round;stroke-dasharray:none"><tspan
         x="45.791016"
         y="934.00609"
         id="tspan133"><tspan
   style="font-size:49.9927px;fill:#0000ff;stroke:#0000ff"
   id="tspan132">main thread</tspan>
</tspan></text><text
       xml:space="preserve"
       transform="matrix(0.12701844,0,0,0.12701844,116.34094,-96.51105)"
       id="text2-2-0-6-2"
       style="font-style:normal;font-variant:normal;font-weight:normal;font-stretch:normal;font-size:21.3333px;font-family:'Latin Modern Sans';-inkscape-font-specification:'Latin Modern Sans';text-align:start;writing-mode:lr-tb;direction:ltr;white-space:pre;shape-inside:url(#rect2-6-6-64-3-5);display:inline;fill:#000000;stroke:#008000;stroke-width:0.755906;stroke-linecap:round;stroke-linejoin:round;stroke-dasharray:none"><tspan
         x="45.791016"
         y="934.00609"
         id="tspan135"><tspan
   style="font-size:49.9927px;fill:#0000ff;stroke:#0000ff"
   id="tspan134">serial_connection thread</tspan>
</tspan></text><rect
       style="fill:none;stroke:#0000ff;stroke-width:0.99538;stroke-linecap:round;stroke-linejoin:round;stroke-dasharray:0.99538, 2.98614;stroke-dashoffset:0"
       id="rect5-4"
       width="67.958076"
       height="196.32347"
       x="120.27702"
       y="16.660515" /><rect
       style="fill:none;stroke:#0000ff;stroke-width:0.99538;stroke-linecap:round;stroke-linejoin:round;stroke-dasharray:0.99538, 2.98614;stroke-dashoffset:0"
       id="rect5-4-1"
       width="67.958076"
       height="196.32347"
       x="200.37061"
       y="16.816444" /><text
       xml:space="preserve"
       transform="matrix(0.12701844,0,0,0.12701844,211.63963,-95.224682)"
       id="text2-2-0-6-2-6"
       style="font-style:normal;font-variant:normal;font-weight:normal;font-stretch:normal;font-size:21.3333px;font-family:'Latin Modern Sans';-inkscape-font-specification:'Latin Modern Sans';text-align:start;writing-mode:lr-tb;direction:ltr;white-space:pre;shape-inside:url(#rect2-6-6-64-3-5-0);display:inline;fill:#000000;stroke:#008000;stroke-width:0.755906;stroke-linecap:round;stroke-linejoin:round;stroke-dasharray:none"><tspan
         x="45.791016"
         y="934.00609"
         id="tspan137"><tspan
   style="font-size:49.9927px;fill:#0000ff;stroke:#0000ff"
   id="tspan136">file_thread</tspan>
</tspan></text><text
       xml:space="preserve"
       transform="matrix(0.26458333,0,0,0.26458333,192.596,-180.04514)"
       id="text2-2-2-7"
       style="font-style:normal;font-variant:normal;font-weight:normal;font-stretch:normal;font-size:21.3333px;font-family:'Latin Modern Sans';-inkscape-font-specification:'Latin Modern Sans';text-align:start;writing-mode:lr-tb;direction:ltr;white-space:pre;shape-inside:url(#rect2-6-6-8-9);display:inline;fill:#000000;stroke:#008000;stroke-width:0.755906;stroke-linecap:round;stroke-linejoin:round;stroke-dasharray:none"><tspan
         x="45.791016"
         y="907.32419"
         id="tspan139"><tspan
   style="font-weight:bold"
   id="tspan138">Files object</tspan>
</tspan><tspan
         x="45.791016"
         y="933.99082"
         id="tspan140">
</tspan><tspan
         x="45.791016"
         y="960.65744"
         id="tspan141">Write parsed sensor data </tspan><tspan
         x="45.791016"
         y="987.32407"
         id="tspan142">to a text file if file </tspan><tspan
         x="45.791016"
         y="1013.9907"
         id="tspan143">recording status is True
</tspan><tspan
         x="45.791016"
         y="1040.6573"
         id="tspan144">
</tspan></text></g><g
     inkscape:groupmode="layer"
     id="layer11"
     inkscape:label="dataframe"><rect
       style="fill:none;stroke:#008000;stroke-width:1.06608;stroke-linecap:round;stroke-linejoin:round"
       id="rect1-2-4-4"
       width="63.924446"
       height="46.276741"
       x="27.760048"
       y="161.98277" /></g></svg>
